<svg xmlns="http://www.w3.org/2000/svg" viewBox="0 0 128 128" fill="none">
  <path fill="#2396ED" d="M123 67.3c-1.8-.1-3.6-.2-5.3-.2-1.2 0-2.4.1-3.6.2-1.1-7.8-5.6-14.6-12.2-18.8-.4 4.3-1.5 8.4-3.2 12.3-2.5 5.6-6.3 10.5-11 14.2H29.5c-2.4 0-4.3 1.9-4.3 4.3v38.4c0 2.4 1.9 4.3 4.3 4.3h67.4c12.8 0 23.2-10.4 23.2-23.2 0-8.4-4.5-15.7-11.1-19.7z"/>
  <path fill="#2396ED" d="M29.5 52.8h8.6v8.6h-8.6v-8.6zm10.3 0h8.6v8.6H39.8v-8.6zm10.3 0h8.6v8.6h-8.6v-8.6zm10.3 0h8.6v8.6h-8.6v-8.6zm-20.6-10.3h8.6v8.6h-8.6v-8.6zm10.3 0h8.6v8.6h-8.6v-8.6zm10.3 0h8.6v8.6h-8.6v-8.6zm10.3 0h8.6v8.6h-8.6v-8.6zm-30.9-10.3h8.6v8.6h-8.6v-8.6zm10.3 0h8.6v8.6h-8.6v-8.6zm10.3 0h8.6v8.6h-8.6v-8.6zm10.3 0h8.6v8.6h-8.6v-8.6z"/>
</svg>
